<svg width="554" height="420" viewBox="0 0 554 420" fill="none" xmlns="http://www.w3.org/2000/svg">
<rect x="239.5" y="23.5" width="302" height="222" rx="39.5" stroke="#969696" stroke-dasharray="8 20"/>
<path fill-rule="evenodd" clip-rule="evenodd" d="M250.762 62.8695C291.659 59.7914 332.738 43.375 371.494 55.2666C412.3 67.7873 442.798 97.9111 467.204 129.282C492.798 162.179 522.914 200.01 514.587 239.193C506.194 278.684 526.276 313.403 496.706 344.025C472.997 368.578 390.245 387.364 357.527 401.842C325.168 416.161 286.813 407.916 250.762 404.812C217.648 401.961 186.025 395.918 155.42 384.44C121.621 371.764 89.1083 357.343 63.1662 334.456C31.9768 306.94 21.4737 277.843 26.0061 239.193C30.6713 199.412 55.9552 185.942 84.2535 154.639C107.343 129.098 109.96 89.9108 141.397 72.5845C172.984 55.1759 213.622 65.6647 250.762 62.8695Z" fill="#FBFBFB"/>
<path d="M283 81C283 81.5528 282.553 82 282 82C281.447 82 281 81.5528 281 81C281 80.4472 281.447 80 282 80C282.553 80 283 80.4472 283 81Z" fill="#E2E2E2"/>
<path d="M177 252H389V256.203C389 257.196 388.167 258 387.145 258H179.654C178.189 258 177 256.848 177 255.429V252Z" fill="#A8A8A8"/>
<path d="M156.305 76H408.695C411.624 76 414 78.3741 414 81.3V245.168C414 250.595 409.592 255 404.16 255H160.84C155.408 255 151 250.595 151 245.168V81.3C151 78.3741 153.376 76 156.305 76Z" fill="#A8A8A8"/>
<path d="M406 246.258V85.7422C406 85.3323 405.668 85 405.259 85L159.741 85C159.332 85 159 85.3323 159 85.7422V246.258C159 246.668 159.332 247 159.741 247L405.259 247C405.668 247 406 246.668 406 246.258Z" fill="white"/>
<path d="M466.998 316.951V315.566L94 315V316.953C94 321.397 98.3802 325 103.783 325H457.217C462.62 325 467 321.399 467 316.953L466.998 316.951Z" fill="#A8A8A8"/>
<path d="M462.993 317H98.0045C93.9916 317 92.8105 315.096 95.3042 312.805L153.542 259.283C155.141 257.813 157.225 257 159.387 257H401.613C403.775 257 405.859 257.815 407.458 259.283L465.696 312.805C468.19 315.096 467.008 317 462.996 317H462.993Z" fill="white"/>
<g opacity="0.3">
<path d="M179.725 266H163.839C163.158 266 162.822 265.776 163.095 265.502L166.108 262.47C166.365 262.212 167.114 262 167.774 262H183.133C183.793 262 184.154 262.212 183.937 262.47L181.386 265.502C181.156 265.776 180.409 266 179.725 266Z" fill="#D4D4D4"/>
<path d="M199.423 266H183.876C183.209 266 182.844 265.776 183.064 265.502L185.511 262.47C185.72 262.212 186.418 262 187.064 262H202.095C202.741 262 203.13 262.212 202.96 262.47L200.966 265.502C200.786 265.776 200.092 266 199.423 266Z" fill="#D4D4D4"/>
<path d="M219.941 266H203.961C203.276 266 202.862 265.776 203.042 265.502L205.044 262.47C205.214 262.212 205.897 262 206.559 262H222.009C222.673 262 223.108 262.212 222.977 262.47L221.442 265.502C221.304 265.776 220.629 266 219.941 266Z" fill="#D4D4D4"/>
<path d="M260.153 266H244.104C243.415 266 242.923 265.776 243.01 265.502L243.986 262.47C244.07 262.212 244.683 262 245.349 262H260.865C261.533 262 262.042 262.212 261.997 262.47L261.49 265.502C261.443 265.776 260.842 266 260.153 266Z" fill="#D4D4D4"/>
<path d="M239.61 266H224.003C223.334 266 222.892 265.776 223.023 265.502L224.474 262.47C224.598 262.212 225.228 262 225.877 262H240.966C241.615 262 242.075 262.212 241.99 262.47L240.993 265.502C240.904 265.776 240.28 266 239.61 266Z" fill="#D4D4D4"/>
<path d="M299.861 266H284.281C283.613 266 283.06 265.776 283.056 265.502L283 262.47C282.996 262.212 283.522 262 284.167 262H299.23C299.878 262 300.443 262.212 300.486 262.47L300.997 265.502C301.043 265.776 300.534 266 299.865 266H299.861Z" fill="#D4D4D4"/>
<path d="M320.91 266H304.919C304.233 266 303.628 265.776 303.577 265.502L303.003 262.47C302.954 262.212 303.458 262 304.123 262H319.582C320.247 262 320.861 262.212 320.95 262.47L321.988 265.502C322.082 265.776 321.598 266 320.912 266H320.91Z" fill="#D4D4D4"/>
<path d="M340.008 266H324.459C323.792 266 323.166 265.776 323.071 265.502L322.012 262.47C321.921 262.212 322.375 262 323.021 262H338.055C338.701 262 339.333 262.212 339.463 262.47L340.975 265.502C341.111 265.776 340.678 266 340.008 266Z" fill="#D4D4D4"/>
<path d="M361.05 266H345.127C344.444 266 343.765 265.776 343.622 265.502L342.025 262.47C341.89 262.212 342.319 262 342.979 262H358.372C359.034 262 359.717 262.212 359.893 262.47L361.955 265.502C362.141 265.776 361.735 266 361.05 266Z" fill="#D4D4D4"/>
<path d="M397.823 266H365.115C364.159 266 363.157 265.685 362.891 265.3L361.061 262.661C360.809 262.296 361.36 262 362.285 262H393.906C394.83 262 395.881 262.296 396.243 262.661L398.867 265.3C399.249 265.683 398.779 266 397.823 266Z" fill="#D4D4D4"/>
<path d="M279.781 266H264.15C263.48 266 262.963 265.776 263.002 265.502L263.448 262.47C263.486 262.212 264.048 262 264.698 262H279.81C280.46 262 280.992 262.212 280.992 262.47L281 265.502C281 265.776 280.452 266 279.781 266Z" fill="#D4D4D4"/>
<path d="M386.587 272H403.139C403.851 272 404.189 271.718 403.893 271.376L400.624 267.587C400.345 267.263 399.557 267 398.871 267H382.891C382.205 267 381.835 267.263 382.072 267.587L384.84 271.376C385.09 271.718 385.877 272 386.589 272H386.587Z" fill="#D4D4D4"/>
<path d="M365.848 272H382.097C382.796 272 383.167 271.718 382.927 271.376L380.26 267.587C380.032 267.263 379.296 267 378.622 267H362.935C362.261 267 361.86 267.263 362.045 267.587L364.218 271.376C364.415 271.718 365.147 272 365.846 272H365.848Z" fill="#D4D4D4"/>
<path d="M345.283 272H362.005C362.724 272 363.148 271.718 362.952 271.376L360.769 267.587C360.584 267.263 359.865 267 359.171 267H343.027C342.334 267 341.884 267.263 342.026 267.587L343.704 271.376C343.855 271.718 344.568 272 345.285 272H345.283Z" fill="#D4D4D4"/>
<path d="M302.875 272H318.905C319.594 272 320.081 271.718 319.989 271.376L318.97 267.587C318.882 267.263 318.269 267 317.604 267H302.128C301.463 267 300.956 267.263 301.003 267.587L301.537 271.376C301.586 271.718 302.187 272 302.877 272H302.875Z" fill="#D4D4D4"/>
<path d="M323.567 272H339.956C340.66 272 341.116 271.718 340.974 271.376L339.383 267.587C339.247 267.263 338.58 267 337.9 267H322.078C321.398 267 320.919 267.263 321.011 267.587L322.105 271.376C322.203 271.718 322.862 272 323.565 272H323.567Z" fill="#D4D4D4"/>
<path d="M261.198 272H277.65C278.358 272 278.939 271.718 278.943 271.376L279 267.587C279.004 267.263 278.45 267 277.768 267H261.884C261.202 267 260.606 267.263 260.557 267.587L260.003 271.376C259.953 271.718 260.49 272 261.198 272Z" fill="#D4D4D4"/>
<path d="M240.083 272H256.062C256.749 272 257.352 271.718 257.407 271.376L257.996 267.587C258.047 267.263 257.546 267 256.883 267H241.457C240.795 267 240.179 267.263 240.087 267.587L239.013 271.376C238.915 271.718 239.398 272 240.083 272Z" fill="#D4D4D4"/>
<path d="M219.031 272H235.371C236.073 272 236.732 271.718 236.836 271.376L237.987 267.587C238.085 267.263 237.61 267 236.934 267H221.16C220.482 267 219.813 267.263 219.673 267.587L218.028 271.376C217.88 271.718 218.33 272 219.033 272H219.031Z" fill="#D4D4D4"/>
<path d="M197.987 272H214.654C215.371 272 216.083 271.718 216.241 271.376L217.972 267.587C218.119 267.263 217.674 267 216.983 267H200.892C200.201 267 199.48 267.263 199.288 267.587L197.051 271.376C196.849 271.718 197.268 272 197.984 272H197.987Z" fill="#D4D4D4"/>
<path d="M159.191 272H192.695C193.675 272 194.709 271.604 194.991 271.126L196.933 267.825C197.2 267.371 196.645 267 195.698 267H163.352C162.405 267 161.319 267.371 160.934 267.825L158.146 271.126C157.74 271.606 158.209 272 159.189 272H159.191Z" fill="#D4D4D4"/>
<path d="M282.289 272H298.791C299.501 272 300.042 271.718 299.997 271.376L299.501 267.587C299.458 267.263 298.865 267 298.18 267H282.249C281.564 267 281.004 267.263 281.004 267.587L281 271.376C281 271.718 281.579 272 282.289 272Z" fill="#D4D4D4"/>
<path d="M370.017 277H407.837C408.813 277 409.264 276.648 408.842 276.218L406.402 273.742C405.999 273.332 404.896 273 403.95 273H367.295C366.348 273 365.797 273.334 366.07 273.742L367.721 276.218C368.006 276.646 369.042 277 370.017 277Z" fill="#D4D4D4"/>
<path d="M347.515 277H364.974C365.723 277 366.159 276.719 365.946 276.375L363.572 272.586C363.369 272.264 362.615 272 361.891 272H345.062C344.34 272 343.874 272.262 344.03 272.586L345.852 276.375C346.017 276.719 346.767 277 347.517 277H347.515Z" fill="#D4D4D4"/>
<path d="M390.912 277H408.12C408.859 277 409.2 276.719 408.88 276.375L405.34 272.586C405.039 272.264 404.209 272 403.498 272H386.912C386.2 272 385.825 272.262 386.08 272.586L389.076 276.375C389.348 276.719 390.175 277 390.914 277H390.912Z" fill="#D4D4D4"/>
<path d="M303.998 277H320.855C321.579 277 322.088 276.719 321.987 276.375L320.871 272.586C320.776 272.264 320.129 272 319.429 272H303.181C302.484 272 301.954 272.262 302.003 272.586L302.587 276.375C302.641 276.719 303.276 277 304 277H303.998Z" fill="#D4D4D4"/>
<path d="M325.743 277H342.915C343.652 277 344.127 276.719 343.97 276.375L342.234 272.586C342.087 272.264 341.385 272 340.673 272H324.121C323.411 272 322.91 272.262 323.013 272.586L324.207 276.375C324.314 276.719 325.008 277 325.745 277H325.743Z" fill="#D4D4D4"/>
<path d="M350.758 283H368.944C369.725 283 370.171 282.718 369.938 282.375L367.361 278.585C367.141 278.262 366.349 278 365.597 278H348.095C347.343 278 346.865 278.262 347.034 278.585L349.013 282.375C349.192 282.718 349.978 283 350.76 283H350.758Z" fill="#D4D4D4"/>
<path d="M396.258 283H414.103C414.87 283 415.211 282.718 414.864 282.375L411.036 278.585C410.71 278.262 409.843 278 409.105 278H391.931C391.193 278 390.814 278.262 391.09 278.585L394.331 282.375C394.623 282.718 395.493 283 396.258 283Z" fill="#D4D4D4"/>
<path d="M371.086 280H389.383C389.87 280 390.121 279.83 389.942 279.625L388.845 278.366C388.67 278.164 388.134 278 387.653 278H369.649C369.169 278 368.895 278.164 369.038 278.366L369.934 279.625C370.08 279.83 370.599 280 371.086 280Z" fill="#D4D4D4"/>
<path d="M373.214 283H392.359C392.87 283 393.129 282.83 392.936 282.625L391.761 281.365C391.574 281.164 391.01 281 390.508 281H371.676C371.173 281 370.888 281.164 371.041 281.365L371.999 282.625C372.156 282.83 372.701 283 373.212 283H373.214Z" fill="#D4D4D4"/>
<path d="M327.931 283H345.876C346.648 283 347.138 282.718 346.965 282.375L345.073 278.585C344.911 278.262 344.174 278 343.434 278H326.163C325.421 278 324.904 278.262 325.015 278.585L326.316 282.375C326.434 282.718 327.162 283 327.933 283H327.931Z" fill="#D4D4D4"/>
<path d="M260.254 277H277.576C278.32 277 278.932 276.719 278.938 276.375L279 272.586C279.004 272.264 278.423 272 277.705 272H261.009C260.292 272 259.663 272.262 259.612 272.586L259.004 276.375C258.949 276.719 259.512 277 260.256 277H260.254Z" fill="#D4D4D4"/>
<path d="M238.131 277H254.932C255.653 277 256.291 276.719 256.35 276.375L256.996 272.586C257.051 272.264 256.527 272 255.83 272H239.636C238.941 272 238.289 272.262 238.19 272.586L237.014 276.375C236.907 276.719 237.411 277 238.133 277H238.131Z" fill="#D4D4D4"/>
<path d="M218.569 283H321.233C322.991 283 324.221 282.352 323.967 281.568L323.25 279.355C323.008 278.607 321.427 278 319.732 278H220.922C219.227 278 217.544 278.607 217.173 279.355L216.077 281.568C215.689 282.352 216.808 283 218.567 283H218.569Z" fill="#D4D4D4"/>
<path d="M217.071 277H234.187C234.922 277 235.618 276.719 235.731 276.375L236.985 272.586C237.092 272.264 236.6 272 235.89 272H219.391C218.684 272 217.978 272.262 217.827 272.586L216.032 276.375C215.871 276.719 216.338 277 217.073 277H217.071Z" fill="#D4D4D4"/>
<path d="M195.011 277H212.416C213.163 277 213.915 276.719 214.086 276.375L215.968 272.586C216.128 272.264 215.67 272 214.948 272H198.172C197.452 272 196.694 272.262 196.487 272.586L194.057 276.375C193.838 276.719 194.268 277 195.016 277H195.011Z" fill="#D4D4D4"/>
<path d="M193.055 283H211.24C212.022 283 212.808 282.718 212.987 282.375L214.966 278.585C215.135 278.262 214.657 278 213.905 278H196.404C195.652 278 194.86 278.262 194.64 278.585L192.062 282.375C191.828 282.718 192.275 283 193.057 283H193.055Z" fill="#D4D4D4"/>
<path d="M170.951 283H188.582C189.34 283 190.15 282.718 190.381 282.375L192.943 278.585C193.16 278.262 192.742 278 192.013 278H175.045C174.316 278 173.502 278.262 173.236 278.585L170.094 282.375C169.809 282.718 170.195 283 170.953 283H170.951Z" fill="#D4D4D4"/>
<path d="M147.897 283H165.742C166.509 283 167.377 282.718 167.669 282.375L170.91 278.585C171.186 278.262 170.807 278 170.069 278H152.895C152.157 278 151.29 278.262 150.963 278.585L147.136 282.375C146.788 282.718 147.131 283 147.897 283Z" fill="#D4D4D4"/>
<path d="M154.225 277H189.369C190.396 277 191.491 276.605 191.802 276.124L193.924 272.824C194.216 272.369 193.642 272 192.652 272H158.774C157.784 272 156.631 272.369 156.212 272.824L153.166 276.124C152.722 276.605 153.199 277 154.227 277H154.225Z" fill="#D4D4D4"/>
<path d="M282.354 277H299.73C300.476 277 301.046 276.719 300.997 276.375L300.453 272.586C300.406 272.264 299.781 272 299.06 272H282.312C281.593 272 281.004 272.262 281.004 272.586L281 276.375C281 276.719 281.61 277 282.357 277H282.354Z" fill="#D4D4D4"/>
</g>
<path opacity="0.3" d="M349.379 312H200.376C194.945 312 191.835 309.488 193.409 306.518L201.511 291.232C202.76 288.873 207.539 287 212.163 287H339.099C343.724 287 348.39 288.875 349.498 291.232L356.678 306.518C358.073 309.488 354.81 312 349.379 312Z" fill="#D4D4D4"/>
<path d="M304.988 145.52C304.988 146.625 304.092 147.52 302.988 147.52L281 147.52C279.895 147.52 279 148.416 279 149.52L279 183.48C279 184.584 279.895 185.48 281 185.48L302.988 185.48C304.092 185.48 304.988 186.375 304.988 187.48L304.988 196.536C304.988 198.4 307.312 199.251 308.515 197.828L333.908 167.791C334.539 167.046 334.539 165.954 333.908 165.209L308.515 135.172C307.312 133.749 304.988 134.6 304.988 136.464L304.988 145.52Z" fill="#1D1D1D"/>
<path d="M491.499 19.166H481.916" stroke="#272525" stroke-width="1.5" stroke-linecap="round"/>
<path d="M476.166 5.75H488.624C489.514 5.75 489.96 5.75 490.333 5.79919C492.913 6.13888 494.944 8.16926 495.283 10.7495C495.333 11.1231 495.333 11.5682 495.333 12.4583" stroke="#272525" stroke-width="1.5"/>
<path d="M460.834 13.321C460.834 11.6295 460.834 10.7837 460.967 10.0792C461.552 6.97791 463.978 4.55204 467.079 3.96691C467.784 3.83398 468.629 3.83398 470.321 3.83398C471.062 3.83398 471.433 3.83398 471.789 3.86729C473.324 4.01087 474.781 4.61414 475.968 5.5983C476.243 5.82658 476.505 6.08861 477.029 6.61267L478.084 7.66732C479.648 9.2309 480.429 10.0127 481.366 10.5335C481.88 10.8197 482.425 11.0456 482.991 11.207C484.022 11.5007 485.127 11.5007 487.338 11.5007H488.055C493.1 11.5007 495.623 11.5007 497.262 12.9755C497.413 13.1111 497.557 13.2547 497.693 13.4055C499.167 15.0452 499.167 17.5679 499.167 22.6133V26.834C499.167 34.0622 499.167 37.6763 496.922 39.9218C494.676 42.1673 491.062 42.1673 483.834 42.1673H476.167C468.939 42.1673 465.325 42.1673 463.079 39.9218C460.834 37.6763 460.834 34.0622 460.834 26.834V13.321Z" fill="white" stroke="#272525" stroke-width="1.5"/>
<g clip-path="url(#clip0_126_172380)">
<path d="M82.2394 373.593L72.1635 373.593C70.9544 388.694 76.6983 392.98 81.2318 392.98L92.3154 394L103.902 393.49C106.085 393.32 111.055 392.47 113.474 390.429C115.892 388.388 116.832 379.375 117 375.123L116.497 373.594C110.854 371.961 105.917 374.103 104.406 375.123L98.3603 381.245C96.1772 381.415 91.4081 381.653 89.7961 381.245C88.184 380.837 85.2622 376.144 82.2394 373.593Z" fill="#449968"/>
<path d="M95 349L95 367M95 367L102 360.25M95 367L88 360.25" stroke="#1C274C" stroke-width="1.18987" stroke-linecap="round" stroke-linejoin="round"/>
<path d="M72 374H79.1106C81.1472 374 82.1655 374 83.0606 374.418C83.9558 374.836 84.6185 375.622 85.9439 377.193L87.3061 378.807C88.6315 380.378 89.2942 381.164 90.1894 381.582C91.0845 382 92.1028 382 94.1394 382H94.8606C96.8972 382 97.9155 382 98.8106 381.582C99.7058 381.164 100.368 380.378 101.694 378.807L103.056 377.193C104.382 375.622 105.044 374.836 105.939 374.418C106.834 374 107.853 374 109.889 374H117" stroke="#1C274C" stroke-width="1.18987" stroke-linecap="round"/>
<path d="M105.75 349C109.407 349.362 111.868 350.18 113.705 352.029C117 355.345 117 360.682 117 371.356C117 382.031 117 387.368 113.705 390.684C110.41 394 105.107 394 94.5 394C83.8934 394 78.5901 394 75.295 390.684C72 387.368 72 382.031 72 371.356C72 360.682 72 355.345 75.295 352.029C77.1321 350.18 79.5934 349.362 83.25 349" stroke="#1C274C" stroke-width="1.18987" stroke-linecap="round"/>
</g>
<path d="M93.3815 193.537C94.3208 188.656 91.1242 183.944 86.2418 183.012C81.3594 182.08 76.64 185.281 75.7007 190.162C74.7614 195.043 77.958 199.756 82.8404 200.688C87.7228 201.62 92.4422 198.418 93.3815 193.537Z" fill="#D71339" stroke="#D71339"/>
<path d="M248.598 193.362C249.744 188.525 246.75 183.682 241.912 182.545C237.073 181.407 232.221 184.406 231.075 189.243C229.929 194.079 232.923 198.922 237.761 200.06C242.6 201.197 247.452 198.198 248.598 193.362Z" fill="#D71339" stroke="#D71339" stroke-width="0.3"/>
<path d="M85 228.051V56.9488C85 52.0118 89.0219 48 93.9958 48H197.193L238.999 89.6098V228.051C238.999 232.988 234.977 237 230.004 237H93.9958C89.0239 237 85 232.99 85 228.051Z" fill="white" stroke="#F33157" stroke-width="2"/>
<rect x="109" y="157" width="105" height="48" rx="6" fill="#F33157"/>
<path d="M134.5 191V171H143.582C145.801 171 147.512 171.567 148.716 172.702C149.919 173.818 150.521 175.378 150.521 177.383C150.521 179.388 149.919 180.957 148.716 182.092C147.512 183.227 145.801 183.794 143.582 183.794H138.872V191H134.5ZM138.872 180.39H142.849C145.162 180.39 146.318 179.388 146.318 177.383C146.318 175.416 145.162 174.433 142.849 174.433H138.872V180.39Z" fill="white"/>
<path d="M153.231 191V171H161.016C164.4 171 167.023 171.87 168.885 173.61C170.747 175.331 171.677 177.79 171.677 180.986C171.677 184.182 170.747 186.65 168.885 188.39C167.023 190.13 164.4 191 161.016 191H153.231ZM157.603 187.397H160.762C164.993 187.397 167.108 185.26 167.108 180.986C167.108 176.73 164.993 174.603 160.762 174.603H157.603V187.397Z" fill="white"/>
<path d="M175.074 191V171H188.5V174.433H179.446V179.312H187.879V182.745H179.446V191H175.074Z" fill="white"/>
<g opacity="0.3">
<path d="M195 97H129C127.895 97 127 97.8954 127 99V105C127 106.105 127.895 107 129 107H195C196.105 107 197 106.105 197 105V99C197 97.8954 196.105 97 195 97Z" fill="#F33157"/>
<path d="M195 115H129C127.895 115 127 115.895 127 117V123C127 124.105 127.895 125 129 125H195C196.105 125 197 124.105 197 123V117C197 115.895 196.105 115 195 115Z" fill="#F33157"/>
<path d="M195 133H129C127.895 133 127 133.895 127 135V141C127 142.105 127.895 143 129 143H195C196.105 143 197 142.105 197 141V135C197 133.895 196.105 133 195 133Z" fill="#F33157"/>
</g>
<path d="M199 79.4248V49.4142L237.586 88H207.575C202.84 88 199 84.1618 199 79.4248Z" fill="white" stroke="#F33157" stroke-width="2"/>
<g filter="url(#filter0_d_126_172380)">
<path d="M239.958 202.052H84.0424C79.0484 202.052 75 197.999 75 193V240.948C75 245.947 79.0484 250 84.0424 250H239.958C244.952 250 249 245.947 249 240.948V193C249 197.999 244.952 202.052 239.958 202.052Z" fill="#F33157"/>
</g>
<path d="M382.381 245.537C383.321 240.656 380.124 235.944 375.242 235.012C370.359 234.08 365.64 237.281 364.701 242.162C363.761 247.043 366.958 251.756 371.84 252.688C376.723 253.62 381.442 250.418 382.381 245.537Z" fill="#2A7148" stroke="#2A7148"/>
<path d="M537.598 247.362C538.744 242.525 535.75 237.682 530.912 236.545C526.073 235.407 521.221 238.406 520.075 243.243C518.929 248.079 521.923 252.922 526.761 254.06C531.6 255.197 536.452 252.198 537.598 247.362Z" fill="#2A7148" stroke="#2A7148" stroke-width="0.3"/>
<path d="M374 280.051V108.949C374 104.012 378.022 100 382.996 100H486.193L527.999 141.61V280.051C527.999 284.988 523.977 289 519.004 289H382.996C378.024 289 374 284.99 374 280.051Z" fill="white" stroke="#449968" stroke-width="2"/>
<rect x="391" y="209" width="120" height="48" rx="6" fill="#449968"/>
<path d="M408.5 242.697V223.303H422.063V226.631H412.656V231.171H421.446V234.527H412.656V239.369H422.063V242.697H408.5Z" fill="white"/>
<path d="M423.005 242.697L430.559 232.876L423.23 223.303H428.285L433.058 229.768L437.804 223.303H442.887L435.53 232.876L443.084 242.697H438.001L433.03 236.012L428.116 242.697H423.005Z" fill="white"/>
<path d="M453.425 243C451.291 243 449.466 242.587 447.949 241.762C446.433 240.937 445.263 239.781 444.439 238.296C443.634 236.792 443.232 235.022 443.232 232.986C443.232 230.969 443.634 229.217 444.439 227.732C445.263 226.228 446.433 225.063 447.949 224.238C449.466 223.413 451.291 223 453.425 223C454.736 223 455.99 223.202 457.188 223.605C458.386 224.009 459.369 224.559 460.137 225.256L458.789 228.64C457.946 227.998 457.095 227.53 456.233 227.237C455.391 226.925 454.502 226.769 453.566 226.769C451.675 226.769 450.243 227.31 449.269 228.392C448.314 229.456 447.837 230.987 447.837 232.986C447.837 234.985 448.314 236.526 449.269 237.608C450.243 238.69 451.675 239.231 453.566 239.231C454.502 239.231 455.391 239.084 456.233 238.791C457.095 238.479 457.946 238.002 458.789 237.36L460.137 240.744C459.369 241.423 458.386 241.973 457.188 242.395C455.99 242.798 454.736 243 453.425 243Z" fill="white"/>
<path d="M462.99 242.697V223.303H476.554V226.631H467.146V231.171H475.936V234.527H467.146V239.369H476.554V242.697H462.99Z" fill="white"/>
<path d="M479.993 242.697V223.303H484.345V239.094H493.5V242.697H479.993Z" fill="white"/>
<g opacity="0.3">
<path d="M484 149H418C416.895 149 416 149.895 416 151V157C416 158.105 416.895 159 418 159H484C485.105 159 486 158.105 486 157V151C486 149.895 485.105 149 484 149Z" fill="#449968"/>
<path d="M416 151L416 193C416 194.105 416.895 195 418 195L424 195C425.105 195 426 194.105 426 193L426 151C426 149.895 425.105 149 424 149L418 149C416.895 149 416 149.895 416 151Z" fill="#449968"/>
<path d="M484 167H418C416.895 167 416 167.895 416 169V175C416 176.105 416.895 177 418 177H484C485.105 177 486 176.105 486 175V169C486 167.895 485.105 167 484 167Z" fill="#449968"/>
<path d="M485 185H419C417.895 185 417 185.895 417 187V193C417 194.105 417.895 195 419 195H485C486.105 195 487 194.105 487 193V187C487 185.895 486.105 185 485 185Z" fill="#449968"/>
<path d="M447 151L447 193C447 194.105 447.895 195 449 195L455 195C456.105 195 457 194.105 457 193L457 151C457 149.895 456.105 149 455 149L449 149C447.895 149 447 149.895 447 151Z" fill="#449968"/>
<path d="M477 151L477 193C477 194.105 477.895 195 479 195L485 195C486.105 195 487 194.105 487 193L487 151C487 149.895 486.105 149 485 149L479 149C477.895 149 477 149.895 477 151Z" fill="#449968"/>
</g>
<path d="M488 131.425V101.414L526.586 140H496.575C491.84 140 488 136.162 488 131.425Z" fill="white" stroke="#449968" stroke-width="2"/>
<g filter="url(#filter1_d_126_172380)">
<path d="M528.958 254.052H373.042C368.048 254.052 364 249.999 364 245V292.948C364 297.947 368.048 302 373.042 302H528.958C533.952 302 538 297.947 538 292.948V245C538 249.999 533.952 254.052 528.958 254.052Z" fill="#449968"/>
</g>
<defs>
<filter id="filter0_d_126_172380" x="75" y="191" width="174" height="59" filterUnits="userSpaceOnUse" color-interpolation-filters="sRGB">
<feFlood flood-opacity="0" result="BackgroundImageFix"/>
<feColorMatrix in="SourceAlpha" type="matrix" values="0 0 0 0 0 0 0 0 0 0 0 0 0 0 0 0 0 0 127 0" result="hardAlpha"/>
<feOffset dy="-2"/>
<feComposite in2="hardAlpha" operator="out"/>
<feColorMatrix type="matrix" values="0 0 0 0 0.843137 0 0 0 0 0.0745098 0 0 0 0 0.223529 0 0 0 1 0"/>
<feBlend mode="normal" in2="BackgroundImageFix" result="effect1_dropShadow_126_172380"/>
<feBlend mode="normal" in="SourceGraphic" in2="effect1_dropShadow_126_172380" result="shape"/>
</filter>
<filter id="filter1_d_126_172380" x="364" y="243" width="174" height="59" filterUnits="userSpaceOnUse" color-interpolation-filters="sRGB">
<feFlood flood-opacity="0" result="BackgroundImageFix"/>
<feColorMatrix in="SourceAlpha" type="matrix" values="0 0 0 0 0 0 0 0 0 0 0 0 0 0 0 0 0 0 127 0" result="hardAlpha"/>
<feOffset dy="-2"/>
<feComposite in2="hardAlpha" operator="out"/>
<feColorMatrix type="matrix" values="0 0 0 0 0.164706 0 0 0 0 0.443137 0 0 0 0 0.282353 0 0 0 1 0"/>
<feBlend mode="normal" in2="BackgroundImageFix" result="effect1_dropShadow_126_172380"/>
<feBlend mode="normal" in="SourceGraphic" in2="effect1_dropShadow_126_172380" result="shape"/>
</filter>
<clipPath id="clip0_126_172380">
<rect x="71" y="347" width="47" height="47" fill="white"/>
</clipPath>
</defs>
</svg>
