<svg width="555" height="424" viewBox="0 0 555 424" fill="none" xmlns="http://www.w3.org/2000/svg">
<rect x="204.5" y="30.5" width="302" height="222" rx="39.5" stroke="#969696" stroke-dasharray="8 20"/>
<path fill-rule="evenodd" clip-rule="evenodd" d="M247.321 69.8695C283.352 66.7914 319.543 50.375 353.688 62.2666C389.638 74.7873 416.508 104.911 438.01 136.282C460.559 169.179 487.091 207.01 479.755 246.193C472.361 285.684 490.053 320.403 464.002 351.025C443.114 375.578 370.208 394.364 341.383 408.842C312.874 423.161 279.082 414.916 247.321 411.812C218.147 408.961 190.287 402.918 163.323 391.44C133.545 378.764 104.902 364.343 82.0463 341.456C54.5679 313.94 14.2823 284.843 18.2755 246.193C22.3856 206.412 75.6933 192.942 100.624 161.639C120.966 136.098 123.273 96.9108 150.969 79.5845C178.797 62.1759 214.6 72.6647 247.321 69.8695Z" fill="#FBFBFB"/>
<path d="M280 90C280 90.5528 279.553 91 279 91C278.447 91 278 90.5528 278 90C278 89.4472 278.447 89 279 89C279.553 89 280 89.4472 280 90Z" fill="#E2E2E2"/>
<path d="M174 261H386V265.203C386 266.196 385.167 267 384.145 267H176.654C175.189 267 174 265.848 174 264.429V261Z" fill="#A8A8A8"/>
<path d="M153.305 85H405.695C408.624 85 411 87.3741 411 90.3V254.168C411 259.595 406.592 264 401.16 264H157.84C152.408 264 148 259.595 148 254.168V90.3C148 87.3741 150.376 85 153.305 85Z" fill="#A8A8A8"/>
<path d="M403 255.258V94.7422C403 94.3323 402.668 94 402.259 94L156.741 94C156.332 94 156 94.3323 156 94.7422V255.258C156 255.668 156.332 256 156.741 256H402.259C402.668 256 403 255.668 403 255.258Z" fill="white"/>
<path d="M463.998 325.951V324.566L91 324V325.953C91 330.397 95.3802 334 100.783 334H454.217C459.62 334 464 330.399 464 325.953L463.998 325.951Z" fill="#A8A8A8"/>
<path d="M459.993 326H95.0045C90.9916 326 89.8105 324.096 92.3042 321.805L150.542 268.283C152.141 266.813 154.225 266 156.387 266H398.613C400.775 266 402.859 266.815 404.458 268.283L462.696 321.805C465.19 324.096 464.008 326 459.996 326H459.993Z" fill="white"/>
<g opacity="0.3">
<path d="M176.725 275H160.839C160.158 275 159.822 274.776 160.095 274.502L163.108 271.47C163.365 271.212 164.114 271 164.774 271H180.133C180.793 271 181.154 271.212 180.937 271.47L178.386 274.502C178.156 274.776 177.409 275 176.725 275Z" fill="#D4D4D4"/>
<path d="M196.423 275H180.876C180.209 275 179.844 274.776 180.064 274.502L182.511 271.47C182.72 271.212 183.418 271 184.064 271H199.095C199.741 271 200.13 271.212 199.96 271.47L197.966 274.502C197.786 274.776 197.092 275 196.423 275Z" fill="#D4D4D4"/>
<path d="M216.941 275H200.961C200.276 275 199.862 274.776 200.042 274.502L202.044 271.47C202.214 271.212 202.897 271 203.559 271H219.009C219.673 271 220.108 271.212 219.977 271.47L218.442 274.502C218.304 274.776 217.629 275 216.941 275Z" fill="#D4D4D4"/>
<path d="M257.153 275H241.104C240.415 275 239.923 274.776 240.01 274.502L240.986 271.47C241.07 271.212 241.683 271 242.349 271H257.865C258.533 271 259.042 271.212 258.997 271.47L258.49 274.502C258.443 274.776 257.842 275 257.153 275Z" fill="#D4D4D4"/>
<path d="M236.61 275H221.003C220.334 275 219.892 274.776 220.023 274.502L221.474 271.47C221.598 271.212 222.228 271 222.877 271H237.966C238.615 271 239.075 271.212 238.99 271.47L237.993 274.502C237.904 274.776 237.28 275 236.61 275Z" fill="#D4D4D4"/>
<path d="M296.861 275H281.281C280.613 275 280.06 274.776 280.056 274.502L280 271.47C279.996 271.212 280.522 271 281.167 271H296.23C296.878 271 297.443 271.212 297.486 271.47L297.997 274.502C298.043 274.776 297.534 275 296.865 275H296.861Z" fill="#D4D4D4"/>
<path d="M317.91 275H301.919C301.233 275 300.628 274.776 300.577 274.502L300.003 271.47C299.954 271.212 300.458 271 301.123 271H316.582C317.247 271 317.861 271.212 317.95 271.47L318.988 274.502C319.082 274.776 318.598 275 317.912 275H317.91Z" fill="#D4D4D4"/>
<path d="M337.008 275H321.459C320.792 275 320.166 274.776 320.071 274.502L319.012 271.47C318.921 271.212 319.375 271 320.021 271H335.055C335.701 271 336.333 271.212 336.463 271.47L337.975 274.502C338.111 274.776 337.678 275 337.008 275Z" fill="#D4D4D4"/>
<path d="M358.05 275H342.127C341.444 275 340.765 274.776 340.622 274.502L339.025 271.47C338.89 271.212 339.319 271 339.979 271H355.372C356.034 271 356.717 271.212 356.893 271.47L358.955 274.502C359.141 274.776 358.735 275 358.05 275Z" fill="#D4D4D4"/>
<path d="M394.823 275H362.115C361.159 275 360.157 274.685 359.891 274.3L358.061 271.661C357.809 271.296 358.36 271 359.285 271H390.906C391.83 271 392.881 271.296 393.243 271.661L395.867 274.3C396.249 274.683 395.779 275 394.823 275Z" fill="#D4D4D4"/>
<path d="M276.781 275H261.15C260.48 275 259.963 274.776 260.002 274.502L260.448 271.47C260.486 271.212 261.048 271 261.698 271H276.81C277.46 271 277.992 271.212 277.992 271.47L278 274.502C278 274.776 277.452 275 276.781 275Z" fill="#D4D4D4"/>
<path d="M383.587 281H400.139C400.851 281 401.189 280.718 400.893 280.376L397.624 276.587C397.345 276.263 396.557 276 395.871 276H379.891C379.205 276 378.835 276.263 379.072 276.587L381.84 280.376C382.09 280.718 382.877 281 383.589 281H383.587Z" fill="#D4D4D4"/>
<path d="M362.848 281H379.097C379.796 281 380.167 280.718 379.927 280.376L377.26 276.587C377.032 276.263 376.296 276 375.622 276H359.935C359.261 276 358.86 276.263 359.045 276.587L361.218 280.376C361.415 280.718 362.147 281 362.846 281H362.848Z" fill="#D4D4D4"/>
<path d="M342.283 281H359.005C359.724 281 360.148 280.718 359.952 280.376L357.769 276.587C357.584 276.263 356.865 276 356.171 276H340.027C339.334 276 338.884 276.263 339.026 276.587L340.704 280.376C340.855 280.718 341.568 281 342.285 281H342.283Z" fill="#D4D4D4"/>
<path d="M299.875 281H315.905C316.594 281 317.081 280.718 316.989 280.376L315.97 276.587C315.882 276.263 315.269 276 314.604 276H299.128C298.463 276 297.956 276.263 298.003 276.587L298.537 280.376C298.586 280.718 299.187 281 299.877 281H299.875Z" fill="#D4D4D4"/>
<path d="M320.567 281H336.956C337.66 281 338.116 280.718 337.974 280.376L336.383 276.587C336.247 276.263 335.58 276 334.9 276H319.078C318.398 276 317.919 276.263 318.011 276.587L319.105 280.376C319.203 280.718 319.862 281 320.565 281H320.567Z" fill="#D4D4D4"/>
<path d="M258.198 281H274.65C275.358 281 275.939 280.718 275.943 280.376L276 276.587C276.004 276.263 275.45 276 274.768 276H258.884C258.202 276 257.606 276.263 257.557 276.587L257.003 280.376C256.953 280.718 257.49 281 258.198 281Z" fill="#D4D4D4"/>
<path d="M237.083 281H253.062C253.749 281 254.352 280.718 254.407 280.376L254.996 276.587C255.047 276.263 254.546 276 253.883 276H238.457C237.795 276 237.179 276.263 237.087 276.587L236.013 280.376C235.915 280.718 236.398 281 237.083 281Z" fill="#D4D4D4"/>
<path d="M216.031 281H232.371C233.073 281 233.732 280.718 233.836 280.376L234.987 276.587C235.085 276.263 234.61 276 233.934 276H218.16C217.482 276 216.813 276.263 216.673 276.587L215.028 280.376C214.88 280.718 215.33 281 216.033 281H216.031Z" fill="#D4D4D4"/>
<path d="M194.987 281H211.654C212.371 281 213.083 280.718 213.241 280.376L214.972 276.587C215.119 276.263 214.674 276 213.983 276H197.892C197.201 276 196.48 276.263 196.288 276.587L194.051 280.376C193.849 280.718 194.268 281 194.984 281H194.987Z" fill="#D4D4D4"/>
<path d="M156.191 281H189.695C190.675 281 191.709 280.604 191.991 280.126L193.933 276.825C194.2 276.371 193.645 276 192.698 276H160.352C159.405 276 158.319 276.371 157.934 276.825L155.146 280.126C154.74 280.606 155.209 281 156.189 281H156.191Z" fill="#D4D4D4"/>
<path d="M279.289 281H295.791C296.501 281 297.042 280.718 296.997 280.376L296.501 276.587C296.458 276.263 295.865 276 295.18 276H279.249C278.564 276 278.004 276.263 278.004 276.587L278 280.376C278 280.718 278.579 281 279.289 281Z" fill="#D4D4D4"/>
<path d="M367.017 286H404.837C405.813 286 406.264 285.648 405.842 285.218L403.402 282.742C402.999 282.332 401.896 282 400.95 282H364.295C363.348 282 362.797 282.334 363.07 282.742L364.721 285.218C365.006 285.646 366.042 286 367.017 286Z" fill="#D4D4D4"/>
<path d="M344.515 286H361.974C362.723 286 363.159 285.719 362.946 285.375L360.572 281.586C360.369 281.264 359.615 281 358.891 281H342.062C341.34 281 340.874 281.262 341.03 281.586L342.852 285.375C343.017 285.719 343.767 286 344.517 286H344.515Z" fill="#D4D4D4"/>
<path d="M387.912 286H405.12C405.859 286 406.2 285.719 405.88 285.375L402.34 281.586C402.039 281.264 401.209 281 400.498 281H383.912C383.2 281 382.825 281.262 383.08 281.586L386.076 285.375C386.348 285.719 387.175 286 387.914 286H387.912Z" fill="#D4D4D4"/>
<path d="M300.998 286H317.855C318.579 286 319.088 285.719 318.987 285.375L317.871 281.586C317.776 281.264 317.129 281 316.429 281H300.181C299.484 281 298.954 281.262 299.003 281.586L299.587 285.375C299.641 285.719 300.276 286 301 286H300.998Z" fill="#D4D4D4"/>
<path d="M322.743 286H339.915C340.652 286 341.127 285.719 340.97 285.375L339.234 281.586C339.087 281.264 338.385 281 337.673 281H321.121C320.411 281 319.91 281.262 320.013 281.586L321.207 285.375C321.314 285.719 322.008 286 322.745 286H322.743Z" fill="#D4D4D4"/>
<path d="M347.758 292H365.944C366.725 292 367.171 291.718 366.938 291.375L364.361 287.585C364.141 287.262 363.349 287 362.597 287H345.095C344.343 287 343.865 287.262 344.034 287.585L346.013 291.375C346.192 291.718 346.978 292 347.76 292H347.758Z" fill="#D4D4D4"/>
<path d="M393.258 292H411.103C411.87 292 412.211 291.718 411.864 291.375L408.036 287.585C407.71 287.262 406.843 287 406.105 287H388.931C388.193 287 387.814 287.262 388.09 287.585L391.331 291.375C391.623 291.718 392.493 292 393.258 292Z" fill="#D4D4D4"/>
<path d="M368.086 289H386.383C386.87 289 387.121 288.83 386.942 288.625L385.845 287.366C385.67 287.164 385.134 287 384.653 287H366.649C366.169 287 365.895 287.164 366.038 287.366L366.934 288.625C367.08 288.83 367.599 289 368.086 289Z" fill="#D4D4D4"/>
<path d="M370.214 292H389.359C389.87 292 390.129 291.83 389.936 291.625L388.761 290.365C388.574 290.164 388.01 290 387.508 290H368.676C368.173 290 367.888 290.164 368.041 290.365L368.999 291.625C369.156 291.83 369.701 292 370.212 292H370.214Z" fill="#D4D4D4"/>
<path d="M324.931 292H342.876C343.648 292 344.138 291.718 343.965 291.375L342.073 287.585C341.911 287.262 341.174 287 340.434 287H323.163C322.421 287 321.904 287.262 322.015 287.585L323.316 291.375C323.434 291.718 324.162 292 324.933 292H324.931Z" fill="#D4D4D4"/>
<path d="M257.254 286H274.576C275.32 286 275.932 285.719 275.938 285.375L276 281.586C276.004 281.264 275.423 281 274.705 281H258.009C257.292 281 256.663 281.262 256.612 281.586L256.004 285.375C255.949 285.719 256.512 286 257.256 286H257.254Z" fill="#D4D4D4"/>
<path d="M235.131 286H251.932C252.653 286 253.291 285.719 253.35 285.375L253.996 281.586C254.051 281.264 253.527 281 252.83 281H236.636C235.941 281 235.289 281.262 235.19 281.586L234.014 285.375C233.907 285.719 234.411 286 235.133 286H235.131Z" fill="#D4D4D4"/>
<path d="M215.569 292H318.233C319.991 292 321.221 291.352 320.967 290.568L320.25 288.355C320.008 287.607 318.427 287 316.732 287H217.922C216.227 287 214.544 287.607 214.173 288.355L213.077 290.568C212.689 291.352 213.808 292 215.567 292H215.569Z" fill="#D4D4D4"/>
<path d="M214.071 286H231.187C231.922 286 232.618 285.719 232.731 285.375L233.985 281.586C234.092 281.264 233.6 281 232.89 281H216.391C215.684 281 214.978 281.262 214.827 281.586L213.032 285.375C212.871 285.719 213.338 286 214.073 286H214.071Z" fill="#D4D4D4"/>
<path d="M192.011 286H209.416C210.163 286 210.915 285.719 211.086 285.375L212.968 281.586C213.128 281.264 212.67 281 211.948 281H195.172C194.452 281 193.694 281.262 193.487 281.586L191.057 285.375C190.838 285.719 191.268 286 192.016 286H192.011Z" fill="#D4D4D4"/>
<path d="M190.055 292H208.24C209.022 292 209.808 291.718 209.987 291.375L211.966 287.585C212.135 287.262 211.657 287 210.905 287H193.404C192.652 287 191.86 287.262 191.64 287.585L189.062 291.375C188.828 291.718 189.275 292 190.057 292H190.055Z" fill="#D4D4D4"/>
<path d="M167.951 292H185.582C186.34 292 187.15 291.718 187.381 291.375L189.943 287.585C190.16 287.262 189.742 287 189.013 287H172.045C171.316 287 170.502 287.262 170.236 287.585L167.094 291.375C166.809 291.718 167.195 292 167.953 292H167.951Z" fill="#D4D4D4"/>
<path d="M144.897 292H162.742C163.509 292 164.377 291.718 164.669 291.375L167.91 287.585C168.186 287.262 167.807 287 167.069 287H149.895C149.157 287 148.29 287.262 147.963 287.585L144.136 291.375C143.788 291.718 144.131 292 144.897 292Z" fill="#D4D4D4"/>
<path d="M151.225 286H186.369C187.396 286 188.491 285.605 188.802 285.124L190.924 281.824C191.216 281.369 190.642 281 189.652 281H155.774C154.784 281 153.631 281.369 153.212 281.824L150.166 285.124C149.722 285.605 150.199 286 151.227 286H151.225Z" fill="#D4D4D4"/>
<path d="M279.354 286H296.73C297.476 286 298.046 285.719 297.997 285.375L297.453 281.586C297.406 281.264 296.781 281 296.06 281H279.312C278.593 281 278.004 281.262 278.004 281.586L278 285.375C278 285.719 278.61 286 279.357 286H279.354Z" fill="#D4D4D4"/>
</g>
<path opacity="0.3" d="M346.379 321H197.376C191.945 321 188.835 318.488 190.409 315.518L198.511 300.232C199.76 297.873 204.539 296 209.163 296H336.099C340.724 296 345.39 297.875 346.498 300.232L353.678 315.518C355.073 318.488 351.81 321 346.379 321Z" fill="#D4D4D4"/>
<path d="M304.988 152.52C304.988 153.625 304.092 154.52 302.988 154.52L281 154.52C279.895 154.52 279 155.416 279 156.52L279 190.48C279 191.584 279.895 192.48 281 192.48L302.988 192.48C304.092 192.48 304.988 193.375 304.988 194.48L304.988 203.536C304.988 205.4 307.312 206.251 308.515 204.828L333.908 174.791C334.539 174.046 334.539 172.954 333.908 172.209L308.515 142.172C307.312 140.749 304.988 141.6 304.988 143.464L304.988 152.52Z" fill="#1D1D1D"/>
<path d="M456.499 26.166H446.916" stroke="#272525" stroke-width="1.5" stroke-linecap="round"/>
<path d="M441.166 12.75H453.624C454.514 12.75 454.96 12.75 455.333 12.7992C457.913 13.1389 459.944 15.1693 460.283 17.7495C460.333 18.1231 460.333 18.5682 460.333 19.4583" stroke="#272525" stroke-width="1.5"/>
<path d="M425.834 20.321C425.834 18.6295 425.834 17.7837 425.967 17.0792C426.552 13.9779 428.978 11.552 432.079 10.9669C432.784 10.834 433.629 10.834 435.321 10.834C436.062 10.834 436.433 10.834 436.789 10.8673C438.324 11.0109 439.781 11.6141 440.968 12.5983C441.243 12.8266 441.505 13.0886 442.029 13.6127L443.084 14.6673C444.648 16.2309 445.429 17.0127 446.366 17.5335C446.88 17.8197 447.425 18.0456 447.991 18.207C449.022 18.5007 450.127 18.5007 452.338 18.5007H453.055C458.1 18.5007 460.623 18.5007 462.262 19.9755C462.413 20.1111 462.557 20.2547 462.693 20.4055C464.167 22.0452 464.167 24.5679 464.167 29.6133V33.834C464.167 41.0622 464.167 44.6763 461.922 46.9218C459.676 49.1673 456.062 49.1673 448.834 49.1673H441.167C433.939 49.1673 430.325 49.1673 428.079 46.9218C425.834 44.6763 425.834 41.0622 425.834 33.834V20.321Z" fill="white" stroke="#272525" stroke-width="1.5"/>
<g clip-path="url(#clip0_126_172375)">
<path d="M19.2394 294.593L9.16351 294.593C7.95445 309.694 13.6983 313.98 18.2318 313.98L29.3154 315L40.9018 314.49C43.0848 314.32 48.0554 313.47 50.4736 311.429C52.8917 309.388 53.8321 300.375 54 296.123L53.4967 294.594C47.8544 292.961 42.9169 295.103 41.4056 296.123L35.3603 302.245C33.1772 302.415 28.4081 302.653 26.7961 302.245C25.184 301.837 22.2622 297.144 19.2394 294.593Z" fill="#449968"/>
<path d="M32 270L32 288M32 288L39 281.25M32 288L25 281.25" stroke="#1C274C" stroke-width="1.18987" stroke-linecap="round" stroke-linejoin="round"/>
<path d="M9 295H16.1106C18.1472 295 19.1655 295 20.0606 295.418C20.9558 295.836 21.6185 296.622 22.9439 298.193L24.3061 299.807C25.6315 301.378 26.2942 302.164 27.1894 302.582C28.0845 303 29.1028 303 31.1394 303H31.8606C33.8972 303 34.9155 303 35.8106 302.582C36.7058 302.164 37.3685 301.378 38.6939 299.807L40.0561 298.193C41.3815 296.622 42.0442 295.836 42.9394 295.418C43.8345 295 44.8528 295 46.8894 295H54" stroke="#1C274C" stroke-width="1.18987" stroke-linecap="round"/>
<path d="M42.75 270C46.4066 270.362 48.8679 271.18 50.705 273.029C54 276.345 54 281.682 54 292.356C54 303.031 54 308.368 50.705 311.684C47.4099 315 42.1066 315 31.5 315C20.8934 315 15.5901 315 12.295 311.684C9 308.368 9 303.031 9 292.356C9 281.682 9 276.345 12.295 273.029C14.1321 271.18 16.5934 270.362 20.25 270" stroke="#1C274C" stroke-width="1.18987" stroke-linecap="round"/>
</g>
<path d="M85.3815 202.537C86.3208 197.656 83.1242 192.944 78.2418 192.012C73.3594 191.08 68.64 194.281 67.7007 199.162C66.7614 204.043 69.958 208.756 74.8404 209.688C79.7228 210.62 84.4422 207.418 85.3815 202.537Z" fill="#D71339" stroke="#D71339"/>
<path d="M240.598 202.362C241.744 197.525 238.75 192.682 233.912 191.545C229.073 190.407 224.221 193.406 223.075 198.243C221.929 203.079 224.923 207.922 229.761 209.06C234.6 210.197 239.452 207.198 240.598 202.362Z" fill="#D71339" stroke="#D71339" stroke-width="0.3"/>
<path d="M77 237.051V65.9488C77 61.0118 81.0219 57 85.9957 57H189.193L230.999 98.6098V237.051C230.999 241.988 226.977 246 222.004 246H85.9957C81.0239 246 77 241.99 77 237.051Z" fill="white" stroke="#F33157" stroke-width="2"/>
<rect x="101" y="166" width="105" height="48" rx="6" fill="#F33157"/>
<path d="M126.5 200V180H135.582C137.801 180 139.512 180.567 140.716 181.702C141.919 182.818 142.521 184.378 142.521 186.383C142.521 188.388 141.919 189.957 140.716 191.092C139.512 192.227 137.801 192.794 135.582 192.794H130.872V200H126.5ZM130.872 189.39H134.849C137.162 189.39 138.318 188.388 138.318 186.383C138.318 184.416 137.162 183.433 134.849 183.433H130.872V189.39Z" fill="white"/>
<path d="M145.231 200V180H153.016C156.4 180 159.023 180.87 160.885 182.61C162.747 184.331 163.677 186.79 163.677 189.986C163.677 193.182 162.747 195.65 160.885 197.39C159.023 199.13 156.4 200 153.016 200H145.231ZM149.603 196.397H152.762C156.993 196.397 159.108 194.26 159.108 189.986C159.108 185.73 156.993 183.603 152.762 183.603H149.603V196.397Z" fill="white"/>
<path d="M167.074 200V180H180.5V183.433H171.446V188.312H179.879V191.745H171.446V200H167.074Z" fill="white"/>
<g opacity="0.3">
<path d="M187 106H121C119.895 106 119 106.895 119 108V114C119 115.105 119.895 116 121 116H187C188.105 116 189 115.105 189 114V108C189 106.895 188.105 106 187 106Z" fill="#F33157"/>
<path d="M187 124H121C119.895 124 119 124.895 119 126V132C119 133.105 119.895 134 121 134H187C188.105 134 189 133.105 189 132V126C189 124.895 188.105 124 187 124Z" fill="#F33157"/>
<path d="M187 142H121C119.895 142 119 142.895 119 144V150C119 151.105 119.895 152 121 152H187C188.105 152 189 151.105 189 150V144C189 142.895 188.105 142 187 142Z" fill="#F33157"/>
</g>
<path d="M191 88.4247V58.4142L229.586 97H199.575C194.84 97 191 93.1618 191 88.4247Z" fill="white" stroke="#F33157" stroke-width="2"/>
<g filter="url(#filter0_d_126_172375)">
<path d="M231.958 211.052H76.0424C71.0484 211.052 67 206.999 67 202V249.948C67 254.947 71.0484 259 76.0424 259H231.958C236.952 259 241 254.947 241 249.948V202C241 206.999 236.952 211.052 231.958 211.052Z" fill="#F33157"/>
</g>
<path d="M382.381 252.537C383.321 247.656 380.124 242.944 375.242 242.012C370.359 241.08 365.64 244.281 364.701 249.162C363.761 254.043 366.958 258.756 371.84 259.688C376.723 260.62 381.442 257.418 382.381 252.537Z" fill="#1022B4" stroke="#1022B4"/>
<path d="M537.598 254.362C538.744 249.525 535.75 244.682 530.912 243.545C526.073 242.407 521.221 245.406 520.075 250.243C518.929 255.079 521.923 259.922 526.761 261.06C531.6 262.197 536.452 259.198 537.598 254.362Z" fill="#1022B4" stroke="#1022B4" stroke-width="0.3"/>
<path d="M374 287.051V115.949C374 111.012 378.022 107 382.996 107H486.193L527.999 148.61V287.051C527.999 291.988 523.977 296 519.004 296H382.996C378.024 296 374 291.99 374 287.051Z" fill="white" stroke="#3E4FE0" stroke-width="2"/>
<rect x="391" y="217" width="120" height="48" rx="6" fill="#3E4FE0"/>
<path d="M411.994 250.697L405 231.303H409.43L413.944 244.563L418.709 231.303H421.83L426.455 244.783L431.136 231.303H435.316L428.266 250.697H424.756L420.158 237.823L415.505 250.697H411.994Z" fill="white"/>
<path d="M446.31 251C444.378 251 442.679 250.587 441.211 249.762C439.762 248.918 438.629 247.754 437.812 246.268C437.013 244.764 436.613 243.004 436.613 240.986C436.613 238.969 437.013 237.217 437.812 235.732C438.629 234.228 439.762 233.063 441.211 232.238C442.66 231.413 444.36 231 446.31 231C448.261 231 449.96 231.413 451.409 232.238C452.877 233.063 454.01 234.228 454.809 235.732C455.626 237.217 456.035 238.96 456.035 240.959C456.035 242.976 455.626 244.737 454.809 246.241C454.01 247.745 452.877 248.918 451.409 249.762C449.96 250.587 448.261 251 446.31 251ZM446.31 247.369C447.945 247.369 449.217 246.809 450.128 245.691C451.056 244.553 451.521 242.985 451.521 240.986C451.521 238.969 451.066 237.41 450.155 236.309C449.245 235.191 447.963 234.631 446.31 234.631C444.694 234.631 443.422 235.191 442.493 236.309C441.583 237.41 441.127 238.969 441.127 240.986C441.127 242.985 441.583 244.553 442.493 245.691C443.422 246.809 444.694 247.369 446.31 247.369Z" fill="white"/>
<path d="M459.376 250.697V231.303H468.348C470.54 231.303 472.23 231.825 473.419 232.871C474.608 233.916 475.202 235.374 475.202 237.245C475.202 238.694 474.821 239.904 474.06 240.876C473.317 241.83 472.249 242.481 470.855 242.829C471.84 243.123 472.648 243.829 473.28 244.948L476.456 250.697H471.691L468.292 244.508C468.013 244.012 467.67 243.673 467.261 243.49C466.852 243.288 466.369 243.187 465.812 243.187H463.694V250.697H459.376ZM463.694 240.106H467.568C469.89 240.106 471.051 239.189 471.051 237.355C471.051 235.539 469.89 234.631 467.568 234.631H463.694V240.106Z" fill="white"/>
<path d="M478.777 250.697V231.303H486.467C489.811 231.303 492.402 232.146 494.241 233.834C496.08 235.503 497 237.887 497 240.986C497 244.086 496.08 246.479 494.241 248.166C492.402 249.854 489.811 250.697 486.467 250.697H478.777ZM483.096 247.204H486.217C490.396 247.204 492.486 245.131 492.486 240.986C492.486 236.86 490.396 234.796 486.217 234.796H483.096V247.204Z" fill="white"/>
<g opacity="0.3">
<path d="M484 156H418C416.895 156 416 156.895 416 158V164C416 165.105 416.895 166 418 166H484C485.105 166 486 165.105 486 164V158C486 156.895 485.105 156 484 156Z" fill="#3E4FE0"/>
<path d="M484 174H418C416.895 174 416 174.895 416 176V182C416 183.105 416.895 184 418 184H484C485.105 184 486 183.105 486 182V176C486 174.895 485.105 174 484 174Z" fill="#3E4FE0"/>
<path d="M484 192H418C416.895 192 416 192.895 416 194V200C416 201.105 416.895 202 418 202H484C485.105 202 486 201.105 486 200V194C486 192.895 485.105 192 484 192Z" fill="#3E4FE0"/>
</g>
<path d="M488 138.425V108.414L526.586 147H496.575C491.84 147 488 143.162 488 138.425Z" fill="white" stroke="#3E4FE0" stroke-width="2"/>
<g filter="url(#filter1_d_126_172375)">
<path d="M528.958 261.052H373.042C368.048 261.052 364 256.999 364 252V299.948C364 304.947 368.048 309 373.042 309H528.958C533.952 309 538 304.947 538 299.948V252C538 256.999 533.952 261.052 528.958 261.052Z" fill="#3E4FE0"/>
</g>
<defs>
<filter id="filter0_d_126_172375" x="67" y="200" width="174" height="59" filterUnits="userSpaceOnUse" color-interpolation-filters="sRGB">
<feFlood flood-opacity="0" result="BackgroundImageFix"/>
<feColorMatrix in="SourceAlpha" type="matrix" values="0 0 0 0 0 0 0 0 0 0 0 0 0 0 0 0 0 0 127 0" result="hardAlpha"/>
<feOffset dy="-2"/>
<feComposite in2="hardAlpha" operator="out"/>
<feColorMatrix type="matrix" values="0 0 0 0 0.843137 0 0 0 0 0.0745098 0 0 0 0 0.223529 0 0 0 1 0"/>
<feBlend mode="normal" in2="BackgroundImageFix" result="effect1_dropShadow_126_172375"/>
<feBlend mode="normal" in="SourceGraphic" in2="effect1_dropShadow_126_172375" result="shape"/>
</filter>
<filter id="filter1_d_126_172375" x="364" y="250" width="174" height="59" filterUnits="userSpaceOnUse" color-interpolation-filters="sRGB">
<feFlood flood-opacity="0" result="BackgroundImageFix"/>
<feColorMatrix in="SourceAlpha" type="matrix" values="0 0 0 0 0 0 0 0 0 0 0 0 0 0 0 0 0 0 127 0" result="hardAlpha"/>
<feOffset dy="-2"/>
<feComposite in2="hardAlpha" operator="out"/>
<feColorMatrix type="matrix" values="0 0 0 0 0.268885 0 0 0 0 0.121684 0 0 0 0 0.679167 0 0 0 1 0"/>
<feBlend mode="normal" in2="BackgroundImageFix" result="effect1_dropShadow_126_172375"/>
<feBlend mode="normal" in="SourceGraphic" in2="effect1_dropShadow_126_172375" result="shape"/>
</filter>
<clipPath id="clip0_126_172375">
<rect x="8" y="268" width="47" height="47" fill="white"/>
</clipPath>
</defs>
</svg>
